# Blender v2.78 (sub 0) OBJ File: '2.blend'
# www.blender.org
mtllib PUSHILIN_radio_tower.mtl
o radio_tower
v 0.224040 -2.176598 0.000000
v 0.158420 -2.176598 -0.158420
v 0.000000 -2.176598 -0.224040
v -0.158420 -2.176598 -0.158420
v -0.224040 -2.176598 0.000000
v -0.158420 -2.176598 0.158420
v -0.000000 -2.176598 0.224040
v 0.158420 -2.176598 0.158420
v 0.115892 -1.834191 0.000000
v 0.081948 -1.834191 -0.081948
v 0.000000 -1.834191 -0.115892
v -0.081948 -1.834191 -0.081948
v -0.115892 -1.834191 0.000000
v -0.081948 -1.834191 0.081948
v 0.000000 -1.834191 0.115892
v 0.081948 -1.834191 0.081948
v 0.055296 -1.025205 0.000000
v 0.039100 -1.025205 -0.039100
v 0.000000 -1.025205 -0.055296
v -0.039100 -1.025205 -0.039100
v -0.055296 -1.025205 0.000000
v -0.039100 -1.025205 0.039100
v 0.000000 -1.025205 0.055296
v 0.039100 -1.025205 0.039100
v 0.059755 0.126355 0.000000
v 0.042254 0.126355 -0.042254
v 0.000000 0.126355 -0.059755
v -0.042254 0.126355 -0.042254
v -0.059755 0.126355 0.000000
v -0.042254 0.126355 0.042254
v 0.000000 0.126355 0.059755
v 0.042254 0.126355 0.042254
v 0.283908 0.240842 0.000000
v 0.200753 0.240842 -0.200753
v 0.000000 0.240842 -0.283908
v -0.200753 0.240842 -0.200753
v -0.283908 0.240842 0.000000
v -0.200753 0.240842 0.200753
v -0.000000 0.240842 0.283908
v 0.200753 0.240842 0.200753
v 0.283908 0.291501 0.000000
v 0.200753 0.291501 -0.200753
v 0.000000 0.291501 -0.283908
v -0.200753 0.291501 -0.200753
v -0.283908 0.291501 0.000000
v -0.200753 0.291501 0.200753
v -0.000000 0.291501 0.283908
v 0.200753 0.291501 0.200753
v 0.262382 0.291501 0.000000
v 0.185532 0.291501 -0.185532
v 0.000000 0.291501 -0.262382
v -0.185532 0.291501 -0.185532
v -0.262382 0.291501 0.000000
v -0.185532 0.291501 0.185532
v -0.000000 0.291501 0.262382
v 0.185532 0.291501 0.185532
v 0.262382 0.398537 0.000000
v 0.185532 0.398537 -0.185532
v 0.000000 0.398537 -0.262382
v -0.185532 0.398537 -0.185532
v -0.262382 0.398537 0.000000
v -0.185532 0.398537 0.185532
v -0.000000 0.398537 0.262382
v 0.185532 0.398537 0.185532
v 0.287775 0.438220 0.000000
v 0.203488 0.438220 -0.203488
v 0.000000 0.438220 -0.287776
v -0.203488 0.438220 -0.203488
v -0.287775 0.438220 0.000000
v -0.203488 0.438220 0.203488
v -0.000000 0.438220 0.287776
v 0.203488 0.438220 0.203488
v 0.051858 0.546030 0.000000
v 0.036669 0.546030 -0.036669
v 0.000000 0.546030 -0.051858
v -0.036669 0.546030 -0.036669
v -0.051858 0.546030 0.000000
v -0.036669 0.546030 0.036669
v -0.000000 0.546030 0.051858
v 0.036669 0.546030 0.036669
v -0.051858 1.666119 0.000000
v -0.051858 1.386096 0.000000
v -0.051858 1.106074 0.000000
v -0.051858 0.826052 0.000000
v -0.036669 0.826052 0.036669
v -0.036669 1.106074 0.036669
v -0.036669 1.386096 0.036669
v -0.036669 1.666119 0.036669
v 0.000000 1.666119 -0.051858
v 0.000000 1.386096 -0.051858
v 0.000000 1.106074 -0.051858
v 0.000000 0.826052 -0.051858
v -0.036669 0.826052 -0.036669
v -0.036669 1.106074 -0.036669
v -0.036669 1.386096 -0.036669
v -0.036669 1.666119 -0.036669
v 0.051858 1.666119 0.000000
v 0.051858 1.386096 0.000000
v 0.051858 1.106074 0.000000
v 0.051858 0.826052 0.000000
v 0.036669 0.826052 -0.036669
v 0.036669 1.106074 -0.036669
v 0.036669 1.386096 -0.036669
v 0.036669 1.666119 -0.036669
v 0.036669 1.666119 0.036669
v 0.036669 1.386096 0.036669
v 0.036669 1.106074 0.036669
v 0.036669 0.826052 0.036669
v -0.000000 0.826052 0.051858
v -0.000000 1.106074 0.051858
v -0.000000 1.386096 0.051858
v -0.000000 1.666119 0.051858
v 0.224040 -2.281339 0.000000
v 0.158420 -2.281339 -0.158420
v 0.000000 -2.281339 -0.224040
v -0.158420 -2.281339 -0.158420
v -0.224040 -2.281339 0.000000
v -0.158420 -2.281339 0.158420
v -0.000000 -2.281339 0.224040
v 0.158420 -2.281339 0.158420
vt 0.7572 0.5960
vt 0.8149 0.6009
vt 0.8149 0.7659
vt 0.7851 0.7634
vt 0.7897 0.0164
vt 0.8470 0.0242
vt 0.8470 0.1870
vt 0.8174 0.1829
vt 0.3494 0.1897
vt 0.4312 0.1897
vt 0.4114 0.3513
vt 0.3691 0.3513
vt 0.4407 0.1897
vt 0.5225 0.1897
vt 0.5028 0.3513
vt 0.4605 0.3513
vt 0.3494 0.0164
vt 0.4312 0.0164
vt 0.4114 0.1803
vt 0.3691 0.1803
vt 0.4407 0.0164
vt 0.5225 0.0164
vt 0.5028 0.1780
vt 0.4605 0.1780
vt 0.8470 0.3592
vt 0.7897 0.3670
vt 0.8174 0.2005
vt 0.8470 0.1964
vt 0.7477 0.7610
vt 0.6900 0.7659
vt 0.7178 0.5985
vt 0.7477 0.5960
vt 0.2144 0.3994
vt 0.1720 0.3994
vt 0.1831 0.0164
vt 0.2033 0.0164
vt 0.0588 0.4005
vt 0.0165 0.4005
vt 0.0275 0.0164
vt 0.0477 0.0164
vt 0.1625 0.3994
vt 0.1202 0.3994
vt 0.1312 0.0164
vt 0.1514 0.0164
vt 0.6504 0.0189
vt 0.6802 0.0164
vt 0.6802 0.4006
vt 0.6660 0.4018
vt 0.5321 0.0164
vt 0.5620 0.0164
vt 0.5487 0.4007
vt 0.5344 0.4007
vt 0.5716 0.0164
vt 0.6015 0.0164
vt 0.5992 0.4007
vt 0.5849 0.4007
vt 0.6409 0.4018
vt 0.6111 0.3993
vt 0.6267 0.0164
vt 0.6409 0.0176
vt 0.1106 0.3994
vt 0.0683 0.3994
vt 0.0794 0.0164
vt 0.0996 0.0164
vt 0.6909 0.0166
vt 0.7052 0.0164
vt 0.7052 0.5622
vt 0.6898 0.5624
vt 0.2875 0.0164
vt 0.3076 0.0164
vt 0.3085 0.5622
vt 0.2866 0.5622
vt 0.2449 0.5622
vt 0.2247 0.5622
vt 0.2239 0.0164
vt 0.2457 0.0164
vt 0.3188 0.0164
vt 0.3390 0.0164
vt 0.3398 0.5618
vt 0.3180 0.5618
vt 0.2763 0.5622
vt 0.2561 0.5622
vt 0.2553 0.0164
vt 0.2771 0.0164
vt 0.7552 0.5624
vt 0.7409 0.5622
vt 0.7397 0.0164
vt 0.7552 0.0166
vt 0.7801 0.5624
vt 0.7659 0.5622
vt 0.7647 0.0164
vt 0.7801 0.0166
vt 0.7159 0.0166
vt 0.7302 0.0164
vt 0.7302 0.5622
vt 0.7148 0.5624
vt 0.3063 0.7837
vt 0.2880 0.7837
vt 0.2239 0.6856
vt 0.3109 0.6856
vt 0.4626 0.4231
vt 0.4626 0.4014
vt 0.5159 0.3608
vt 0.5159 0.4638
vt 0.4134 0.7099
vt 0.4317 0.7099
vt 0.4364 0.8080
vt 0.3494 0.8080
vt 0.4121 0.4727
vt 0.3903 0.4727
vt 0.3494 0.3608
vt 0.4530 0.3608
vt 0.6109 0.4747
vt 0.6311 0.4747
vt 0.6722 0.5865
vt 0.5764 0.5865
vt 0.5300 0.7128
vt 0.5300 0.7328
vt 0.4629 0.8050
vt 0.4629 0.7099
vt 0.5396 0.7328
vt 0.5396 0.7128
vt 0.6067 0.7099
vt 0.6067 0.8050
vt 0.1094 0.6366
vt 0.1295 0.6366
vt 0.1640 0.7485
vt 0.0683 0.7485
vt 0.4330 0.8175
vt 0.4330 0.9205
vt 0.4089 0.9205
vt 0.4089 0.8175
vt 0.7495 0.9393
vt 0.7495 0.8665
vt 0.7737 0.8661
vt 0.7737 0.9389
vt 0.8748 0.8661
vt 0.8748 0.9389
vt 0.8506 0.9393
vt 0.8506 0.8665
vt 0.8411 0.8665
vt 0.8411 0.9393
vt 0.8169 0.9389
vt 0.8169 0.8661
vt 0.7832 0.9393
vt 0.7832 0.8665
vt 0.8074 0.8661
vt 0.8074 0.9389
vt 0.9377 0.7382
vt 0.9377 0.8412
vt 0.9135 0.8412
vt 0.9135 0.7382
vt 0.9377 0.0164
vt 0.9377 0.1194
vt 0.9135 0.1194
vt 0.9135 0.0164
vt 0.9377 0.1289
vt 0.9377 0.2319
vt 0.9135 0.2319
vt 0.9135 0.1289
vt 0.3261 0.9737
vt 0.3261 0.8707
vt 0.3356 0.8746
vt 0.3356 0.9698
vt 0.2813 0.9737
vt 0.2813 0.8707
vt 0.2908 0.8746
vt 0.2908 0.9698
vt 0.9472 0.1194
vt 0.9472 0.0164
vt 0.9567 0.0203
vt 0.9567 0.1155
vt 0.8850 0.9834
vt 0.8850 0.8804
vt 0.8945 0.8843
vt 0.8945 0.9795
vt 0.3099 0.8707
vt 0.3099 0.9737
vt 0.3004 0.9698
vt 0.3004 0.8746
vt 0.9757 0.0164
vt 0.9757 0.1194
vt 0.9663 0.1155
vt 0.9663 0.0203
vt 0.9472 0.9836
vt 0.9472 0.8806
vt 0.9567 0.8845
vt 0.9567 0.9797
vt 0.4426 0.9205
vt 0.4426 0.8175
vt 0.4521 0.8214
vt 0.4521 0.9166
vt 0.8755 0.5968
vt 0.8755 0.6641
vt 0.8244 0.6633
vt 0.8244 0.5960
vt 0.8755 0.6743
vt 0.8755 0.7416
vt 0.8244 0.7409
vt 0.8244 0.6736
vt 0.8408 0.3764
vt 0.8408 0.4716
vt 0.7897 0.4716
vt 0.7897 0.3764
vt 0.6162 0.8051
vt 0.6162 0.7099
vt 0.6673 0.7099
vt 0.6673 0.8051
vt 0.1194 0.7580
vt 0.1194 0.8531
vt 0.0683 0.8531
vt 0.0683 0.7580
vt 0.7897 0.5763
vt 0.7897 0.4811
vt 0.8408 0.4811
vt 0.8408 0.5763
vt 0.2750 0.7940
vt 0.2750 0.8613
vt 0.2239 0.8605
vt 0.2239 0.7932
vt 0.3356 0.7932
vt 0.3356 0.8605
vt 0.2845 0.8613
vt 0.2845 0.7940
vt 0.2431 0.8707
vt 0.2431 0.9381
vt 0.2239 0.9489
vt 0.2239 0.8751
vt 0.3397 0.6964
vt 0.3397 0.7637
vt 0.3205 0.7594
vt 0.3205 0.6856
vt 0.2718 0.8707
vt 0.2718 0.9381
vt 0.2526 0.9489
vt 0.2526 0.8751
vt 0.9135 0.3411
vt 0.9135 0.2460
vt 0.9332 0.2414
vt 0.9332 0.3458
vt 0.0683 0.9624
vt 0.0683 0.8672
vt 0.0874 0.8626
vt 0.0874 0.9670
vt 0.7091 0.8707
vt 0.7091 0.9659
vt 0.6900 0.9705
vt 0.6900 0.8661
vt 0.7186 0.9659
vt 0.7186 0.8707
vt 0.7372 0.8661
vt 0.7372 0.9705
vt 0.1161 0.8672
vt 0.1161 0.9624
vt 0.0970 0.9670
vt 0.0970 0.8626
vt 0.4534 0.4821
vt 0.4534 0.5865
vt 0.3494 0.5437
vt 0.3494 0.5249
vt 0.0683 0.5133
vt 0.0683 0.4089
vt 0.1723 0.4517
vt 0.1723 0.4705
vt 0.6804 0.5960
vt 0.6804 0.7004
vt 0.5764 0.6576
vt 0.5764 0.6388
vt 0.1723 0.5228
vt 0.1723 0.6272
vt 0.0683 0.5844
vt 0.0683 0.5656
vt 0.3494 0.7004
vt 0.3494 0.5960
vt 0.4534 0.6388
vt 0.4534 0.6576
vt 0.3279 0.5717
vt 0.3279 0.6761
vt 0.2239 0.6333
vt 0.2239 0.6145
vt 0.5669 0.5960
vt 0.5669 0.7004
vt 0.4629 0.6576
vt 0.4629 0.6388
vt 0.5669 0.4821
vt 0.5669 0.5865
vt 0.4629 0.5437
vt 0.4629 0.5249
vt 0.5577 0.4183
vt 0.5577 0.4638
vt 0.5254 0.4317
vt 0.6299 0.4357
vt 0.6372 0.4183
vt 0.6372 0.4531
vt 0.5807 0.4183
vt 0.5807 0.4638
vt 0.5673 0.4505
vt 0.6467 0.4357
vt 0.6540 0.4183
vt 0.6540 0.4531
vt 0.6036 0.4638
vt 0.5902 0.4505
vt 0.6036 0.4183
vt 0.6204 0.4531
vt 0.6131 0.4357
vt 0.6204 0.4183
vt 0.9701 0.1291
vt 0.9835 0.1289
vt 0.9835 0.2616
vt 0.9701 0.2618
vt 0.0220 0.8368
vt 0.0354 0.8366
vt 0.0354 0.9693
vt 0.0220 0.9695
vt 0.1289 0.8489
vt 0.1423 0.8487
vt 0.1423 0.9814
vt 0.1289 0.9816
vt 0.0583 0.6851
vt 0.0449 0.6853
vt 0.0449 0.5526
vt 0.0583 0.5524
vt 0.1884 0.7580
vt 0.2073 0.7580
vt 0.2073 0.8907
vt 0.1884 0.8907
vt 0.8566 0.0164
vt 0.8755 0.0164
vt 0.8755 0.1491
vt 0.8566 0.1491
vt 0.9040 0.8709
vt 0.8850 0.8709
vt 0.8850 0.7382
vt 0.9040 0.7382
vt 0.1819 0.5511
vt 0.2008 0.5511
vt 0.2008 0.6838
vt 0.1819 0.6838
vt 0.9073 0.3764
vt 0.9262 0.3764
vt 0.9262 0.5091
vt 0.9073 0.5091
vt 0.8850 0.1585
vt 0.9040 0.1585
vt 0.9040 0.2912
vt 0.8850 0.2912
vt 0.9135 0.5960
vt 0.9325 0.5960
vt 0.9325 0.7287
vt 0.9135 0.7287
vt 0.9040 0.1491
vt 0.8850 0.1491
vt 0.8850 0.0164
vt 0.9040 0.0164
vt 0.0354 0.6849
vt 0.0165 0.6849
vt 0.0165 0.5522
vt 0.0354 0.5522
vt 0.8755 0.2913
vt 0.8566 0.2913
vt 0.8566 0.1586
vt 0.8755 0.1586
vt 0.9040 0.7287
vt 0.8850 0.7287
vt 0.8850 0.5960
vt 0.9040 0.5960
vt 0.0354 0.5427
vt 0.0165 0.5427
vt 0.0165 0.4100
vt 0.0354 0.4100
vt 0.8503 0.3764
vt 0.8692 0.3764
vt 0.8692 0.5092
vt 0.8503 0.5092
vt 0.0165 0.6944
vt 0.0354 0.6944
vt 0.0354 0.8271
vt 0.0165 0.8271
vt 0.8788 0.3764
vt 0.8977 0.3764
vt 0.8977 0.5092
vt 0.8788 0.5092
vt 0.1819 0.4089
vt 0.2008 0.4089
vt 0.2008 0.5416
vt 0.1819 0.5416
vt 0.9606 0.2618
vt 0.9472 0.2616
vt 0.9472 0.1289
vt 0.9606 0.1291
vt 0.9554 0.7287
vt 0.9420 0.7285
vt 0.9420 0.5957
vt 0.9554 0.5959
vt 0.9835 0.8711
vt 0.9702 0.8709
vt 0.9702 0.7382
vt 0.9835 0.7384
vt 0.0583 0.5429
vt 0.0449 0.5427
vt 0.0449 0.4100
vt 0.0583 0.4102
vt 0.9649 0.5959
vt 0.9783 0.5957
vt 0.9783 0.7285
vt 0.9649 0.7287
vt 0.9587 0.3766
vt 0.9721 0.3764
vt 0.9721 0.5092
vt 0.9587 0.5094
vt 0.1518 0.8489
vt 0.1652 0.8487
vt 0.1652 0.9814
vt 0.1518 0.9816
vt 0.0583 0.8275
vt 0.0449 0.8277
vt 0.0449 0.6950
vt 0.0583 0.6948
vt 0.9606 0.8711
vt 0.9472 0.8709
vt 0.9472 0.7382
vt 0.9606 0.7384
vt 0.0583 0.9701
vt 0.0449 0.9699
vt 0.0449 0.8372
vt 0.0583 0.8374
vt 0.9269 0.9836
vt 0.9135 0.9834
vt 0.9135 0.8507
vt 0.9269 0.8509
vt 0.9491 0.5094
vt 0.9357 0.5092
vt 0.9357 0.3764
vt 0.9491 0.3766
vt 0.6900 0.8566
vt 0.6900 0.7754
vt 0.7400 0.7754
vt 0.7400 0.8566
vt 0.8167 0.8566
vt 0.8167 0.7754
vt 0.8667 0.7754
vt 0.8667 0.8566
vt 0.1789 0.7580
vt 0.1789 0.8392
vt 0.1289 0.8392
vt 0.1289 0.7580
vt 0.5396 0.8719
vt 0.5396 0.8145
vt 0.5895 0.8152
vt 0.5895 0.8727
vt 0.5129 0.8145
vt 0.5129 0.8719
vt 0.4629 0.8727
vt 0.4629 0.8152
vt 0.3993 0.8183
vt 0.3993 0.8757
vt 0.3494 0.8750
vt 0.3494 0.8175
vt 0.6162 0.8728
vt 0.6162 0.8153
vt 0.6662 0.8146
vt 0.6662 0.8720
vt 0.7572 0.8566
vt 0.7572 0.7754
vt 0.8072 0.7754
vt 0.8072 0.8566
vn -0.3674 0.2801 -0.8869
vn 0.8869 0.2801 -0.3674
vn 0.8869 0.2801 0.3674
vn -0.3674 0.2801 0.8869
vn -0.8869 0.2801 -0.3674
vn 0.3674 0.2801 -0.8869
vn 0.3674 0.2801 0.8869
vn -0.8869 0.2801 0.3674
vn -0.3818 0.0690 0.9217
vn -0.9217 0.0690 -0.3818
vn 0.3818 0.0690 -0.9217
vn 0.3818 0.0690 0.9217
vn -0.9217 0.0690 0.3818
vn -0.3818 0.0690 -0.9217
vn 0.9217 0.0690 -0.3818
vn 0.9217 0.0690 0.3818
vn 0.9239 -0.0036 -0.3827
vn 0.9239 -0.0036 0.3827
vn -0.3827 -0.0036 0.9239
vn -0.9239 -0.0036 -0.3827
vn 0.3827 -0.0036 -0.9239
vn 0.3827 -0.0036 0.9239
vn -0.9239 -0.0036 0.3827
vn -0.3827 -0.0036 -0.9239
vn 0.1852 -0.8752 0.4470
vn -0.4470 -0.8752 0.1852
vn -0.1852 -0.8752 -0.4470
vn 0.4470 -0.8752 -0.1852
vn 0.4470 -0.8752 0.1852
vn -0.1852 -0.8752 0.4470
vn -0.4470 -0.8752 -0.1852
vn 0.1852 -0.8752 -0.4470
vn 0.3827 0.0000 -0.9239
vn 0.3827 0.0000 0.9239
vn -0.9239 0.0000 0.3827
vn -0.3827 0.0000 -0.9239
vn 0.9239 0.0000 -0.3827
vn 0.9239 0.0000 0.3827
vn -0.3827 0.0000 0.9239
vn -0.9239 0.0000 -0.3827
vn 0.0000 1.0000 0.0000
vn 0.3294 -0.5089 0.7953
vn -0.7953 -0.5089 0.3294
vn -0.3294 -0.5089 -0.7953
vn 0.7953 -0.5089 -0.3294
vn 0.7953 -0.5089 0.3294
vn -0.3294 -0.5089 0.7953
vn -0.7953 -0.5089 -0.3294
vn 0.3294 -0.5089 -0.7953
vn 0.4096 0.8963 0.1697
vn -0.1697 0.8963 0.4096
vn -0.4096 0.8963 -0.1697
vn 0.1697 0.8963 -0.4096
vn 0.1697 0.8963 0.4096
vn -0.4096 0.8963 0.1697
vn -0.1697 0.8963 -0.4096
vn 0.4096 0.8963 -0.1697
usemtl None
s off
f 3/1/1 4/2/1 12/3/1 11/4/1
f 1/5/2 2/6/2 10/7/2 9/8/2
f 8/9/3 1/10/3 9/11/3 16/12/3
f 6/13/4 7/14/4 15/15/4 14/16/4
f 4/17/5 5/18/5 13/19/5 12/20/5
f 2/21/6 3/22/6 11/23/6 10/24/6
f 7/25/7 8/26/7 16/27/7 15/28/7
f 5/29/8 6/30/8 14/31/8 13/32/8
f 14/33/9 15/34/9 23/35/9 22/36/9
f 12/37/10 13/38/10 21/39/10 20/40/10
f 10/41/11 11/42/11 19/43/11 18/44/11
f 15/45/12 16/46/12 24/47/12 23/48/12
f 13/49/13 14/50/13 22/51/13 21/52/13
f 11/53/14 12/54/14 20/55/14 19/56/14
f 9/57/15 10/58/15 18/59/15 17/60/15
f 16/61/16 9/62/16 17/63/16 24/64/16
f 17/65/17 18/66/17 26/67/17 25/68/17
f 24/69/18 17/70/18 25/71/18 32/72/18
f 22/73/19 23/74/19 31/75/19 30/76/19
f 20/77/20 21/78/20 29/79/20 28/80/20
f 18/81/21 19/82/21 27/83/21 26/84/21
f 23/85/22 24/86/22 32/87/22 31/88/22
f 21/89/23 22/90/23 30/91/23 29/92/23
f 19/93/24 20/94/24 28/95/24 27/96/24
f 31/97/25 32/98/25 40/99/25 39/100/25
f 29/101/26 30/102/26 38/103/26 37/104/26
f 27/105/27 28/106/27 36/107/27 35/108/27
f 25/109/28 26/110/28 34/111/28 33/112/28
f 32/113/29 25/114/29 33/115/29 40/116/29
f 30/117/30 31/118/30 39/119/30 38/120/30
f 28/121/31 29/122/31 37/123/31 36/124/31
f 26/125/32 27/126/32 35/127/32 34/128/32
f 34/129/33 35/130/33 43/131/33 42/132/33
f 39/133/34 40/134/34 48/135/34 47/136/34
f 37/137/35 38/138/35 46/139/35 45/140/35
f 35/141/36 36/142/36 44/143/36 43/144/36
f 33/145/37 34/146/37 42/147/37 41/148/37
f 40/149/38 33/150/38 41/151/38 48/152/38
f 38/153/39 39/154/39 47/155/39 46/156/39
f 36/157/40 37/158/40 45/159/40 44/160/40
f 48/161/41 41/162/41 49/163/41 56/164/41
f 46/165/41 47/166/41 55/167/41 54/168/41
f 44/169/41 45/170/41 53/171/41 52/172/41
f 42/173/41 43/174/41 51/175/41 50/176/41
f 47/177/41 48/178/41 56/179/41 55/180/41
f 45/181/41 46/182/41 54/183/41 53/184/41
f 43/185/41 44/186/41 52/187/41 51/188/41
f 41/189/41 42/190/41 50/191/41 49/192/41
f 51/193/36 52/194/36 60/195/36 59/196/36
f 49/197/37 50/198/37 58/199/37 57/200/37
f 56/201/38 49/202/38 57/203/38 64/204/38
f 54/205/39 55/206/39 63/207/39 62/208/39
f 52/209/40 53/210/40 61/211/40 60/212/40
f 50/213/33 51/214/33 59/215/33 58/216/33
f 55/217/34 56/218/34 64/219/34 63/220/34
f 53/221/35 54/222/35 62/223/35 61/224/35
f 63/225/42 64/226/42 72/227/42 71/228/42
f 61/229/43 62/230/43 70/231/43 69/232/43
f 59/233/44 60/234/44 68/235/44 67/236/44
f 57/237/45 58/238/45 66/239/45 65/240/45
f 64/241/46 57/242/46 65/243/46 72/244/46
f 62/245/47 63/246/47 71/247/47 70/248/47
f 60/249/48 61/250/48 69/251/48 68/252/48
f 58/253/49 59/254/49 67/255/49 66/256/49
f 72/257/50 65/258/50 73/259/50 80/260/50
f 70/261/51 71/262/51 79/263/51 78/264/51
f 68/265/52 69/266/52 77/267/52 76/268/52
f 66/269/53 67/270/53 75/271/53 74/272/53
f 71/273/54 72/274/54 80/275/54 79/276/54
f 69/277/55 70/278/55 78/279/55 77/280/55
f 67/281/56 68/282/56 76/283/56 75/284/56
f 65/285/57 66/286/57 74/287/57 73/288/57
f 96/289/41 112/290/41 104/291/41
f 88/292/41 112/293/41 81/294/41
f 112/295/41 96/296/41 81/297/41
f 89/298/41 96/299/41 104/300/41
f 112/301/41 105/302/41 104/303/41
f 105/304/41 97/305/41 104/306/41
f 79/307/34 80/308/34 108/309/34 109/310/34
f 109/311/34 108/312/34 107/313/34 110/314/34
f 110/315/34 107/316/34 106/317/34 111/318/34
f 111/319/34 106/320/34 105/321/34 112/322/34
f 74/323/33 75/324/33 92/325/33 101/326/33
f 101/327/33 92/328/33 91/329/33 102/330/33
f 102/331/33 91/332/33 90/333/33 103/334/33
f 103/335/33 90/336/33 89/337/33 104/338/33
f 76/339/40 77/340/40 84/341/40 93/342/40
f 93/343/40 84/344/40 83/345/40 94/346/40
f 94/347/40 83/348/40 82/349/40 95/350/40
f 95/351/40 82/352/40 81/353/40 96/354/40
f 78/355/39 79/356/39 109/357/39 85/358/39
f 85/359/39 109/360/39 110/361/39 86/362/39
f 86/363/39 110/364/39 111/365/39 87/366/39
f 87/367/39 111/368/39 112/369/39 88/370/39
f 80/371/38 73/372/38 100/373/38 108/374/38
f 108/375/38 100/376/38 99/377/38 107/378/38
f 107/379/38 99/380/38 98/381/38 106/382/38
f 106/383/38 98/384/38 97/385/38 105/386/38
f 73/387/37 74/388/37 101/389/37 100/390/37
f 100/391/37 101/392/37 102/393/37 99/394/37
f 99/395/37 102/396/37 103/397/37 98/398/37
f 98/399/37 103/400/37 104/401/37 97/402/37
f 75/403/36 76/404/36 93/405/36 92/406/36
f 92/407/36 93/408/36 94/409/36 91/410/36
f 91/411/36 94/412/36 95/413/36 90/414/36
f 90/415/36 95/416/36 96/417/36 89/418/36
f 77/419/35 78/420/35 85/421/35 84/422/35
f 84/423/35 85/424/35 86/425/35 83/426/35
f 83/427/35 86/428/35 87/429/35 82/430/35
f 82/431/35 87/432/35 88/433/35 81/434/35
f 7/435/39 6/436/39 118/437/39 119/438/39
f 5/439/40 4/440/40 116/441/40 117/442/40
f 3/443/33 2/444/33 114/445/33 115/446/33
f 8/447/34 7/448/34 119/449/34 120/450/34
f 6/451/35 5/452/35 117/453/35 118/454/35
f 4/455/36 3/456/36 115/457/36 116/458/36
f 2/459/37 1/460/37 113/461/37 114/462/37
f 1/463/38 8/464/38 120/465/38 113/466/38
