mtllib materials.mtl
v -0.138334 0.1049995 0.05666661
v -0.138334 0.1049998 -0.1033332
v -0.1283336 -0.1650002 -0.1033335
v -0.1283336 -0.1650004 0.05666637
v -0.1683335 -0.1650002 -0.1033335
v -0.178334 0.1049998 -0.1033332
v -0.178334 0.1049995 0.05666661
v -0.1683335 -0.1650004 0.05666661
v 0.03166628 -0.09500027 -0.07333326
v 0.03166628 -0.09500051 -0.1133335
v 0.03166628 -0.1250005 -0.1133337
v 0.03166628 -0.1250005 -0.07333374
v -0.1283338 -0.1250002 -0.1033337
v -0.1383338 -0.0650003 -0.1033335
v -0.1383338 -0.0650003 -0.0733335
v -0.1283338 -0.1250002 -0.07333374
v 0.04166603 -0.1250002 0.05666661
v 0.04166603 -0.1250002 -0.1033335
v 0.04166603 -0.1650002 -0.1033335
v 0.04166603 -0.1650002 0.05666661
v -0.128334 -0.1650002 -0.1033332
v -0.128334 -0.1250002 -0.1033332
v -0.128334 -0.1250002 0.05666661
v -0.128334 -0.1650002 0.05666661
v 0.03166676 -0.09499979 0.06666684
v 0.03166676 -0.09500003 0.02666688
v 0.03166676 -0.1250002 0.02666664
v 0.03166676 -0.125 0.0666666
v -0.1283333 -0.1249998 0.02666664
v -0.1383333 -0.06499982 0.02666688
v -0.1383333 -0.06499982 0.05666685
v -0.1283333 -0.1249998 0.05666661
v -0.1281276 0.08251691 0.0266664
v -0.1281278 0.08251715 -0.0733335
v -0.1212378 0.0408411 -0.07333374
v -0.1212378 0.0408411 0.0266664
v -0.1314447 -0.006675959 -0.07333374
v -0.1383348 0.0849998 -0.0733335
v -0.1383345 0.08499956 0.0266664
v -0.1314445 -0.006676197 0.0266664
v 0.03166628 -0.1650002 0.04666638
v 0.03166628 -0.1650002 -0.09333372
v 0.001666307 -0.2450001 -0.09333372
v 0.001666307 -0.2450001 0.04666615
v -0.1583338 -0.2450002 -0.09333348
v -0.1583338 -0.1650002 -0.09333348
v -0.1583338 -0.1650002 0.04666638
v -0.1583335 -0.2450001 0.04666638
vn 0.9993148 0.0370132 -2.983729E-08
vn -0.9993148 -0.03701343 4.178106E-07
vn 5.667806E-08 -1 -2.166889E-07
vn -1.546791E-06 1 5.367201E-07
vn 2.581082E-06 -4.947749E-07 1
vn 1.884669E-07 1.046675E-06 -1
vn 1 -2.522371E-06 6.707381E-07
vn -0.986394 -0.1643988 -4.79496E-07
vn -1.026867E-06 -1 1.547224E-06
vn 0.1737857 0.9847835 5.499084E-07
vn -1.21654E-06 -6.872579E-06 1
vn -0.06110781 -0.006784198 -0.9981081
vn 1 3.437005E-07 -2.022016E-07
vn -1 -3.612368E-08 9.742921E-08
vn 5.296982E-10 -1 -1.784511E-07
vn -5.297047E-10 1 1.50484E-07
vn -2.871525E-07 -2.565177E-07 1
vn -1.131251E-06 2.56517E-07 -1
vn 1 -2.461401E-06 6.241715E-07
vn -0.986394 -0.1643987 -4.794957E-07
vn -1.173218E-06 -1 1.540571E-06
vn 0.1737858 0.9847835 1.799633E-07
vn -0.06110931 -0.006795283 0.998108
vn 7.745191E-07 5.580129E-06 -1
vn 0.986608 0.1631091 -8.70672E-07
vn -0.9971877 -0.07494546 8.883904E-07
vn 0.9776985 -0.2100135 -9.66109E-07
vn 0.2363462 0.971669 5.50081E-07
vn 2.639647E-06 -1.660703E-06 1
vn -5.674298E-06 3.116679E-06 -1
vn 0.9363295 -0.3511225 -4.366324E-07
vn -1 -2.740652E-07 4.2262E-07
vn 4.085255E-07 -1 2.173273E-07
vn -3.202953E-07 1 -2.16919E-07
vn 1.03627E-07 -9.529617E-07 1
vn -1.116853E-06 3.994899E-07 -1
vt -0.02796846 0.3221591
vt -0.0406337 0.3319362
vt -0.05714384 0.310549
vt -0.04447861 0.3007719
vt 0.05705353 0.3106663
vt 0.04054338 0.3320535
vt 0.02787815 0.3222764
vt 0.04438827 0.3008891
vt -0.3125688 -0.1764869
vt -0.3139142 -0.1802539
vt -0.2988463 -0.1856353
vt -0.297501 -0.1818683
vt 0.2991826 -0.1865768
vt 0.3142504 -0.1811954
vt 0.3129051 -0.1774284
vt 0.2978372 -0.1828098
vt 0.3029123 -0.1563755
vt 0.3275091 -0.1451952
vt 0.3257202 -0.1416175
vt 0.3011234 -0.1527978
vt -0.3257204 -0.141618
vt -0.3275093 -0.1451957
vt -0.3029125 -0.156376
vt -0.3011236 -0.1527983
vt -0.06788937 0.3041032
vt -0.07114433 0.3064281
vt -0.07288806 0.3039869
vt -0.06963313 0.301662
vt -0.02241586 0.3400611
vt -0.02689095 0.3441809
vt -0.02892288 0.3419738
vt -0.02444778 0.337854
vt -0.3081288 -0.1610833
vt -0.3125685 -0.1764875
vt -0.3097432 -0.1774965
vt -0.3043619 -0.1624286
vt 0.3282469 -0.1975264
vt 0.3310345 -0.1964176
vt 0.3255835 -0.1800077
vt 0.3218667 -0.181486
vt 0.3047 -0.1510108
vt 0.3105138 -0.1492219
vt 0.3002279 -0.1353583
vt 0.2975446 -0.1366999
vt -0.2943184 -0.1231225
vt -0.3045302 -0.1370767
vt -0.2987059 -0.1388308
vt -0.2916268 -0.1244472
vt -0.05905385 0.2941067
vt -0.07207359 0.3034065
vt -0.07439853 0.3001516
vt -0.0613788 0.2908518
vt 0.07439858 0.3001515
vt 0.07207363 0.3034064
vt 0.05905391 0.2941066
vt 0.06137886 0.2908517
vt -0.3068511 -0.1604774
vt -0.3125688 -0.176487
vt -0.297501 -0.1818684
vt -0.2917832 -0.1658588
vt 0.2975009 -0.1818684
vt 0.3125688 -0.176487
vt 0.3068511 -0.1604774
vt 0.2917832 -0.1658588
vt 0.3011239 -0.1527982
vt 0.3047016 -0.1510094
vt 0.297099 -0.1358041
vt 0.2935213 -0.137593
vt -0.2970988 -0.1358038
vt -0.3047014 -0.1510091
vt -0.3011237 -0.152798
vt -0.2935211 -0.1375927
vt -0.05649705 0.2959659
vt -0.059752 0.2982908
vt -0.06149574 0.2958496
vt -0.05824079 0.2935247
vt -0.03122084 0.330497
vt -0.03569594 0.3346168
vt -0.03772786 0.3324097
vt -0.03325277 0.3282899
vt -0.2949444 -0.165792
vt -0.3003258 -0.1808598
vt -0.2975006 -0.1818689
vt -0.2911775 -0.1671373
vt 0.3161672 -0.2023312
vt 0.3189548 -0.2012224
vt 0.3125746 -0.185182
vt 0.3088579 -0.1866604
vt 0.310418 -0.160866
vt 0.3162179 -0.1590327
vt 0.3058169 -0.145219
vt 0.3031436 -0.1465803
vt -0.3002282 -0.1353579
vt -0.3105142 -0.1492215
vt -0.3047004 -0.1510103
vt -0.2975449 -0.1366995
vt 0.0453277 0.3442513
vt 0.0385391 0.351594
vt 0.03543742 0.3487264
vt 0.04222606 0.3413837
vt 0.02489349 0.3304166
vt 0.01896791 0.3374456
vt 0.01132225 0.3310001
vt 0.01724781 0.3239712
vt -0.1338663 0.2478761
vt -0.1360779 0.2435484
vt -0.1271732 0.2389978
vt -0.1249616 0.2433256
vt 0.3275587 -0.2076871
vt 0.3367836 -0.2038269
vt 0.3363782 -0.2028579
vt 0.3271532 -0.206718
vt 0.3154233 -0.1459958
vt 0.3239311 -0.1425122
vt 0.3232526 -0.1417103
vt 0.3192169 -0.1429578
vt -0.3232518 -0.1417101
vt -0.3239304 -0.142512
vt -0.3154225 -0.1459956
vt -0.3192161 -0.1429576
vt -0.1622915 0.1782512
vt -0.1751251 0.1838456
vt -0.1785393 0.1760134
vt -0.1657057 0.170419
vt 0.07823486 0.2930605
vt 0.07358495 0.2995704
vt 0.06219269 0.291433
vt 0.06684259 0.2849232
vt -0.3072546 -0.1645807
vt -0.312636 -0.1796486
vt -0.2994516 -0.1843573
vt -0.2940702 -0.1692894
vt 0.2994516 -0.1843573
vt 0.312636 -0.1796486
vt 0.3062456 -0.1617555
vt 0.2930612 -0.1664642
vt 0.2953099 -0.1590592
vt 0.3024653 -0.1554815
vt 0.2939683 -0.1384874
vt 0.2881545 -0.1447484
vt -0.2939683 -0.1384871
vt -0.3024653 -0.1554813
vt -0.2953099 -0.159059
vt -0.2881545 -0.1447481
o group2105590044
g mesh2105590044
usemtl mat8
f 4/4/1 3/3/1 2/2/1 1/1/1
f 8/8/2 7/7/2 6/6/2 5/5/2
f 4/12/3 8/11/3 5/10/3 3/9/3
f 1/16/4 2/15/4 6/14/4 7/13/4
f 4/20/5 1/19/5 7/18/5 8/17/5
f 3/24/6 5/23/6 6/22/6 2/21/6
o group549880947
g mesh549880947
usemtl mat8
f 12/28/7 11/27/7 10/26/7 9/25/7
f 16/32/8 15/31/8 14/30/8 13/29/8
f 12/36/9 16/35/9 13/34/9 11/33/9
f 9/40/10 10/39/10 14/38/10 15/37/10
f 12/44/11 9/43/11 15/42/11 16/41/11
f 11/48/12 13/47/12 14/46/12 10/45/12
o group1602274213
g mesh1602274213
usemtl mat8
f 20/52/13 19/51/13 18/50/13 17/49/13
f 24/56/14 23/55/14 22/54/14 21/53/14
f 20/60/15 24/59/15 21/58/15 19/57/15
f 17/64/16 18/63/16 22/62/16 23/61/16
f 20/68/17 17/67/17 23/66/17 24/65/17
f 19/72/18 21/71/18 22/70/18 18/69/18
o group975455076
g mesh975455076
usemtl mat8
f 28/76/19 27/75/19 26/74/19 25/73/19
f 32/80/20 31/79/20 30/78/20 29/77/20
f 28/84/21 32/83/21 29/82/21 27/81/21
f 25/88/22 26/87/22 30/86/22 31/85/22
f 28/92/23 25/91/23 31/90/23 32/89/23
f 27/96/24 29/95/24 30/94/24 26/93/24
o group74679583
g mesh74679583
usemtl mat8
f 36/100/25 35/99/25 34/98/25 33/97/25
f 40/104/26 39/103/26 38/102/26 37/101/26
f 36/108/27 40/107/27 37/106/27 35/105/27
f 33/112/28 34/111/28 38/110/28 39/109/28
f 36/116/29 33/115/29 39/114/29 40/113/29
f 35/120/30 37/119/30 38/118/30 34/117/30
o group267084990
g mesh267084990
usemtl mat23
f 44/124/31 43/123/31 42/122/31 41/121/31
f 48/128/32 47/127/32 46/126/32 45/125/32
f 44/132/33 48/131/33 45/130/33 43/129/33
f 41/136/34 42/135/34 46/134/34 47/133/34
f 44/140/35 41/139/35 47/138/35 48/137/35
f 43/144/36 45/143/36 46/142/36 42/141/36
